<svg width="221" height="73" viewBox="0 0 221 73" fill="none" xmlns="http://www.w3.org/2000/svg">
<g filter="url(#filter0_d_619_162)">
<rect x="4" y="3" width="55.7101" height="62" rx="9" fill="black"/>
</g>
<g filter="url(#filter1_i_619_162)">
<path d="M46.5684 12H17.4282V16.8567H46.5684V12Z" fill="white"/>
<path d="M44.1401 19.285H19.8567C17.1855 19.285 15 21.4705 15 24.1417V50.8535C15 53.5247 17.1855 55.7102 19.8567 55.7102H44.1401C46.8113 55.7102 48.9968 53.5247 48.9968 50.8535V24.1417C48.9968 21.4705 46.8113 19.285 44.1401 19.285ZM41.7118 41.1401H35.6409V47.211H28.3559V41.1401H22.285V33.8551H28.3559V27.7842H35.6409V33.8551H41.7118V41.1401Z" fill="white"/>
</g>
<g filter="url(#filter2_d_619_162)">
<path d="M75.4118 45.5H77.1818V56H75.4118V45.5ZM76.4618 47.06V45.5H78.5768C79.3368 45.5 79.9968 45.635 80.5568 45.905C81.1268 46.165 81.5668 46.54 81.8768 47.03C82.1868 47.51 82.3418 48.085 82.3418 48.755C82.3418 49.425 82.1868 50.005 81.8768 50.495C81.5668 50.985 81.1268 51.365 80.5568 51.635C79.9968 51.895 79.3368 52.025 78.5768 52.025H76.4618V50.465H78.5768C79.1868 50.465 79.6768 50.32 80.0468 50.03C80.4168 49.74 80.6018 49.315 80.6018 48.755C80.6018 48.195 80.4168 47.775 80.0468 47.495C79.6768 47.205 79.1868 47.06 78.5768 47.06H76.4618ZM93.6387 51.185V49.55H101.124V51.185H93.6387ZM99.9837 45.5H101.754V56H99.9837V45.5ZM92.9337 45.5H94.7037V56H92.9337V45.5ZM114.206 53.3L114.536 51.8H119.411L119.756 53.3H114.206ZM116.951 48.47L115.301 52.325L115.271 52.715L113.816 56H111.821L116.951 44.915L122.081 56H120.086L118.661 52.805L118.616 52.37L116.951 48.47ZM134.312 50.99H136.232L139.787 56H137.657L134.312 50.99ZM132.152 45.5H133.922V56H132.152V45.5ZM133.202 47.03V45.5H135.392C136.152 45.5 136.812 45.635 137.372 45.905C137.942 46.175 138.382 46.555 138.692 47.045C139.002 47.525 139.157 48.095 139.157 48.755C139.157 49.415 139.002 49.99 138.692 50.48C138.382 50.97 137.942 51.35 137.372 51.62C136.812 51.89 136.152 52.025 135.392 52.025H133.202V50.57H135.317C135.717 50.57 136.067 50.5 136.367 50.36C136.677 50.22 136.917 50.02 137.087 49.76C137.257 49.49 137.342 49.17 137.342 48.8C137.342 48.42 137.257 48.1 137.087 47.84C136.917 47.58 136.677 47.38 136.367 47.24C136.067 47.1 135.717 47.03 135.317 47.03H133.202ZM151.873 49.61L151.153 56H149.323L150.763 44.975L155.068 52.1L159.388 44.975L160.828 56H158.998L158.263 49.61L155.068 55.025L151.873 49.61ZM172.66 53.3L172.99 51.8H177.865L178.21 53.3H172.66ZM175.405 48.47L173.755 52.325L173.725 52.715L172.27 56H170.275L175.405 44.915L180.535 56H178.54L177.115 52.805L177.07 52.37L175.405 48.47ZM191.457 50.75C191.457 51.49 191.622 52.14 191.952 52.7C192.292 53.26 192.732 53.695 193.272 54.005C193.822 54.305 194.417 54.455 195.057 54.455C195.557 54.455 196.007 54.39 196.407 54.26C196.807 54.13 197.167 53.955 197.487 53.735C197.817 53.505 198.102 53.25 198.342 52.97V55.07C197.902 55.43 197.427 55.705 196.917 55.895C196.407 56.085 195.767 56.18 194.997 56.18C194.227 56.18 193.507 56.05 192.837 55.79C192.177 55.53 191.602 55.155 191.112 54.665C190.622 54.175 190.237 53.6 189.957 52.94C189.687 52.27 189.552 51.54 189.552 50.75C189.552 49.96 189.687 49.235 189.957 48.575C190.237 47.905 190.622 47.325 191.112 46.835C191.602 46.345 192.177 45.97 192.837 45.71C193.507 45.45 194.227 45.32 194.997 45.32C195.767 45.32 196.407 45.415 196.917 45.605C197.427 45.795 197.902 46.07 198.342 46.43V48.53C198.102 48.25 197.817 48 197.487 47.78C197.167 47.55 196.807 47.37 196.407 47.24C196.007 47.11 195.557 47.045 195.057 47.045C194.417 47.045 193.822 47.2 193.272 47.51C192.732 47.81 192.292 48.24 191.952 48.8C191.622 49.35 191.457 50 191.457 50.75ZM214.694 45.5H216.719L213.149 51.575V56H211.349V51.59L207.794 45.5H209.804L212.249 50L214.694 45.5Z" fill="black"/>
</g>
<path d="M105.923 30.8262C106.216 28.9707 106.769 27.2617 107.583 25.6992C108.397 24.1367 109.325 22.7858 110.366 21.6465C111.44 20.4746 112.596 19.5143 113.833 18.7656C115.07 18.0169 116.274 17.5449 117.446 17.3496C118.618 17.1217 119.692 17.1706 120.669 17.4961C121.678 17.8216 122.492 18.4727 123.11 19.4492C123.11 20.1979 122.931 20.9141 122.573 21.5977C122.248 22.2812 121.873 22.9648 121.45 23.6484C121.06 24.332 120.685 25.0319 120.327 25.748C120.002 26.4642 119.839 27.2292 119.839 28.043C119.839 28.8893 120.018 29.5729 120.376 30.0938C120.767 30.582 121.434 30.8262 122.378 30.8262C123.159 30.8262 123.908 30.7122 124.624 30.4844C125.373 30.2565 126.121 30.1426 126.87 30.1426C127 30.1426 127.212 30.1589 127.505 30.1914C127.83 30.1914 128.042 30.1914 128.14 30.1914C127.749 30.7448 127.244 31.2168 126.626 31.6074C126.007 31.998 125.356 32.3398 124.673 32.6328C123.989 32.8932 123.273 33.0885 122.524 33.2188C121.808 33.349 121.141 33.4141 120.522 33.4141C119.937 33.4141 119.416 33.2839 118.96 33.0234C118.504 32.763 118.114 32.4212 117.788 31.998C117.463 31.5749 117.202 31.1029 117.007 30.582C116.844 30.0286 116.763 29.4915 116.763 28.9707C116.274 29.5241 115.737 30.11 115.151 30.7285C114.598 31.3145 113.996 31.8516 113.345 32.3398C112.726 32.8281 112.043 33.235 111.294 33.5605C110.578 33.8861 109.829 34.0488 109.048 34.0488C108.201 34.0488 107.469 33.7396 106.851 33.1211C106.232 32.4701 105.923 31.7051 105.923 30.8262ZM109.146 29.3125C109.146 29.5729 109.146 29.8659 109.146 30.1914C109.178 30.5169 109.39 30.7285 109.78 30.8262C110.594 30.6309 111.522 30.2077 112.563 29.5566C113.605 28.873 114.582 28.0918 115.493 27.2129C116.405 26.3014 117.17 25.3411 117.788 24.332C118.407 23.2904 118.716 22.2975 118.716 21.3535C118.716 21.2884 118.7 21.1908 118.667 21.0605C118.667 20.8978 118.667 20.7839 118.667 20.7188C117.56 20.7188 116.437 20.9466 115.298 21.4023C114.159 21.8581 113.133 22.4928 112.222 23.3066C111.31 24.0879 110.562 24.9993 109.976 26.041C109.422 27.0827 109.146 28.1732 109.146 29.3125ZM126.382 29.5566C126.382 29.1335 126.479 28.6615 126.675 28.1406C126.903 27.5872 127.244 27.2292 127.7 27.0664C127.765 27.0339 127.847 27.0176 127.944 27.0176C128.075 26.985 128.188 26.9525 128.286 26.9199C128.416 26.8874 128.53 26.8711 128.628 26.8711V29.5566C128.823 29.3613 129.116 29.0033 129.507 28.4824C129.93 27.9616 130.353 27.4082 130.776 26.8223C131.232 26.2038 131.639 25.6178 131.997 25.0645C132.388 24.5111 132.648 24.1042 132.778 23.8438L144.155 1.67578C144.155 1.67578 144.237 1.57812 144.399 1.38281C144.595 1.1875 144.806 1.05729 145.034 0.992188C145.295 0.894531 145.571 0.927083 145.864 1.08984C146.157 1.2526 146.434 1.67578 146.694 2.35938L139.761 16.3242V16.9102C140.672 17.0404 141.519 17.2357 142.3 17.4961C143.081 17.724 143.748 18.0658 144.302 18.5215C144.888 18.9772 145.343 19.5469 145.669 20.2305C145.994 20.8815 146.157 21.679 146.157 22.623C146.157 24.2181 145.734 25.7155 144.888 27.1152C144.074 28.4824 143.016 29.6868 141.714 30.7285C140.412 31.7376 138.963 32.5514 137.368 33.1699C135.806 33.7559 134.292 34.0488 132.827 34.0488C132.176 34.0488 131.476 33.9674 130.728 33.8047C129.979 33.6094 129.279 33.3327 128.628 32.9746C128.009 32.584 127.472 32.112 127.017 31.5586C126.593 30.9727 126.382 30.3053 126.382 29.5566ZM140.298 19.9863C139.842 19.9863 139.338 20.1979 138.784 20.6211C138.263 21.0443 137.743 21.5977 137.222 22.2812C136.701 22.9323 136.196 23.681 135.708 24.5273C135.22 25.3411 134.78 26.1549 134.39 26.9688C134.032 27.7826 133.739 28.5475 133.511 29.2637C133.283 29.9798 133.169 30.5495 133.169 30.9727C134.08 30.9727 135.106 30.7611 136.245 30.3379C137.384 29.9147 138.442 29.3613 139.419 28.6777C140.428 27.9616 141.258 27.1478 141.909 26.2363C142.593 25.2923 142.935 24.3158 142.935 23.3066C142.935 22.4277 142.756 21.6628 142.397 21.0117C142.039 20.3281 141.34 19.9863 140.298 19.9863ZM160.317 16.3242C159.569 16.4219 158.706 16.8939 157.729 17.7402C156.753 18.554 155.809 19.5632 154.897 20.7676C154.019 21.9395 153.27 23.2253 152.651 24.625C152.033 25.9922 151.724 27.2617 151.724 28.4336C151.724 29.3776 151.968 30.0449 152.456 30.4355C152.944 30.7936 153.644 30.9727 154.556 30.9727C155.532 30.9727 156.476 30.8587 157.388 30.6309C158.332 30.3704 159.259 30.11 160.171 29.8496C161.115 29.5566 162.043 29.2962 162.954 29.0684C163.898 28.8079 164.858 28.6777 165.835 28.6777C165.835 29.1335 165.77 29.5241 165.64 29.8496C165.509 30.1426 165.314 30.4681 165.054 30.8262C163.361 31.64 161.619 32.3887 159.829 33.0723C158.039 33.7233 156.167 34.0488 154.214 34.0488C153.628 34.0488 153.009 33.9512 152.358 33.7559C151.707 33.528 151.105 33.2188 150.552 32.8281C149.998 32.4375 149.526 31.9655 149.136 31.4121C148.778 30.8587 148.599 30.2402 148.599 29.5566C148.599 28.0918 148.81 26.6758 149.233 25.3086C149.657 23.9089 150.243 22.5905 150.991 21.3535C151.74 20.1165 152.635 18.9772 153.677 17.9355C154.751 16.8939 155.907 15.9824 157.144 15.2012V15.1523C157.632 14.8594 158.185 14.5827 158.804 14.3223C159.455 14.0293 160.057 13.8665 160.61 13.834C161.164 13.7689 161.619 13.8991 161.978 14.2246C162.368 14.5176 162.563 15.0872 162.563 15.9336C162.563 16.3242 162.531 16.8451 162.466 17.4961C162.401 18.1146 162.222 18.554 161.929 18.8145C161.668 18.9772 161.326 19.1237 160.903 19.2539C160.708 19.319 160.513 19.3678 160.317 19.4004V16.3242Z" fill="black"/>
<defs>
<filter id="filter0_d_619_162" x="0" y="3" width="63.71" height="70" filterUnits="userSpaceOnUse" color-interpolation-filters="sRGB">
<feFlood flood-opacity="0" result="BackgroundImageFix"/>
<feColorMatrix in="SourceAlpha" type="matrix" values="0 0 0 0 0 0 0 0 0 0 0 0 0 0 0 0 0 0 127 0" result="hardAlpha"/>
<feOffset dy="4"/>
<feGaussianBlur stdDeviation="2"/>
<feComposite in2="hardAlpha" operator="out"/>
<feColorMatrix type="matrix" values="0 0 0 0 0 0 0 0 0 0 0 0 0 0 0 0 0 0 0.25 0"/>
<feBlend mode="normal" in2="BackgroundImageFix" result="effect1_dropShadow_619_162"/>
<feBlend mode="normal" in="SourceGraphic" in2="effect1_dropShadow_619_162" result="shape"/>
</filter>
<filter id="filter1_i_619_162" x="15" y="12" width="33.9971" height="47.7102" filterUnits="userSpaceOnUse" color-interpolation-filters="sRGB">
<feFlood flood-opacity="0" result="BackgroundImageFix"/>
<feBlend mode="normal" in="SourceGraphic" in2="BackgroundImageFix" result="shape"/>
<feColorMatrix in="SourceAlpha" type="matrix" values="0 0 0 0 0 0 0 0 0 0 0 0 0 0 0 0 0 0 127 0" result="hardAlpha"/>
<feOffset dy="4"/>
<feGaussianBlur stdDeviation="2"/>
<feComposite in2="hardAlpha" operator="arithmetic" k2="-1" k3="1"/>
<feColorMatrix type="matrix" values="0 0 0 0 0 0 0 0 0 0 0 0 0 0 0 0 0 0 0.25 0"/>
<feBlend mode="normal" in2="shape" result="effect1_innerShadow_619_162"/>
</filter>
<filter id="filter2_d_619_162" x="71.4116" y="44.915" width="149.308" height="19.265" filterUnits="userSpaceOnUse" color-interpolation-filters="sRGB">
<feFlood flood-opacity="0" result="BackgroundImageFix"/>
<feColorMatrix in="SourceAlpha" type="matrix" values="0 0 0 0 0 0 0 0 0 0 0 0 0 0 0 0 0 0 127 0" result="hardAlpha"/>
<feOffset dy="4"/>
<feGaussianBlur stdDeviation="2"/>
<feComposite in2="hardAlpha" operator="out"/>
<feColorMatrix type="matrix" values="0 0 0 0 0 0 0 0 0 0 0 0 0 0 0 0 0 0 0.25 0"/>
<feBlend mode="normal" in2="BackgroundImageFix" result="effect1_dropShadow_619_162"/>
<feBlend mode="normal" in="SourceGraphic" in2="effect1_dropShadow_619_162" result="shape"/>
</filter>
</defs>
</svg>
