<svg width="217" height="65" viewBox="0 0 217 65" fill="none" xmlns="http://www.w3.org/2000/svg">
<g filter="url(#filter0_i_619_163)">
<rect y="3" width="55.7101" height="62" rx="9" fill="white"/>
</g>
<g filter="url(#filter1_d_619_163)">
<path d="M42.5684 12H13.4282V16.8567H42.5684V12Z" fill="black"/>
<path d="M40.1401 19.285H15.8567C13.1855 19.285 11 21.4705 11 24.1417V50.8535C11 53.5247 13.1855 55.7102 15.8567 55.7102H40.1401C42.8113 55.7102 44.9968 53.5247 44.9968 50.8535V24.1417C44.9968 21.4705 42.8113 19.285 40.1401 19.285ZM37.7118 41.1401H31.6409V47.211H24.3559V41.1401H18.285V33.8551H24.3559V27.7842H31.6409V33.8551H37.7118V41.1401Z" fill="black"/>
</g>
<g filter="url(#filter2_d_619_163)">
<path d="M71.4118 45.5H73.1818V56H71.4118V45.5ZM72.4618 47.06V45.5H74.5768C75.3368 45.5 75.9968 45.635 76.5568 45.905C77.1268 46.165 77.5668 46.54 77.8768 47.03C78.1868 47.51 78.3418 48.085 78.3418 48.755C78.3418 49.425 78.1868 50.005 77.8768 50.495C77.5668 50.985 77.1268 51.365 76.5568 51.635C75.9968 51.895 75.3368 52.025 74.5768 52.025H72.4618V50.465H74.5768C75.1868 50.465 75.6768 50.32 76.0468 50.03C76.4168 49.74 76.6018 49.315 76.6018 48.755C76.6018 48.195 76.4168 47.775 76.0468 47.495C75.6768 47.205 75.1868 47.06 74.5768 47.06H72.4618ZM89.6387 51.185V49.55H97.1237V51.185H89.6387ZM95.9837 45.5H97.7537V56H95.9837V45.5ZM88.9337 45.5H90.7037V56H88.9337V45.5ZM110.206 53.3L110.536 51.8H115.411L115.756 53.3H110.206ZM112.951 48.47L111.301 52.325L111.271 52.715L109.816 56H107.821L112.951 44.915L118.081 56H116.086L114.661 52.805L114.616 52.37L112.951 48.47ZM130.312 50.99H132.232L135.787 56H133.657L130.312 50.99ZM128.152 45.5H129.922V56H128.152V45.5ZM129.202 47.03V45.5H131.392C132.152 45.5 132.812 45.635 133.372 45.905C133.942 46.175 134.382 46.555 134.692 47.045C135.002 47.525 135.157 48.095 135.157 48.755C135.157 49.415 135.002 49.99 134.692 50.48C134.382 50.97 133.942 51.35 133.372 51.62C132.812 51.89 132.152 52.025 131.392 52.025H129.202V50.57H131.317C131.717 50.57 132.067 50.5 132.367 50.36C132.677 50.22 132.917 50.02 133.087 49.76C133.257 49.49 133.342 49.17 133.342 48.8C133.342 48.42 133.257 48.1 133.087 47.84C132.917 47.58 132.677 47.38 132.367 47.24C132.067 47.1 131.717 47.03 131.317 47.03H129.202ZM147.873 49.61L147.153 56H145.323L146.763 44.975L151.068 52.1L155.388 44.975L156.828 56H154.998L154.263 49.61L151.068 55.025L147.873 49.61ZM168.66 53.3L168.99 51.8H173.865L174.21 53.3H168.66ZM171.405 48.47L169.755 52.325L169.725 52.715L168.27 56H166.275L171.405 44.915L176.535 56H174.54L173.115 52.805L173.07 52.37L171.405 48.47ZM187.457 50.75C187.457 51.49 187.622 52.14 187.952 52.7C188.292 53.26 188.732 53.695 189.272 54.005C189.822 54.305 190.417 54.455 191.057 54.455C191.557 54.455 192.007 54.39 192.407 54.26C192.807 54.13 193.167 53.955 193.487 53.735C193.817 53.505 194.102 53.25 194.342 52.97V55.07C193.902 55.43 193.427 55.705 192.917 55.895C192.407 56.085 191.767 56.18 190.997 56.18C190.227 56.18 189.507 56.05 188.837 55.79C188.177 55.53 187.602 55.155 187.112 54.665C186.622 54.175 186.237 53.6 185.957 52.94C185.687 52.27 185.552 51.54 185.552 50.75C185.552 49.96 185.687 49.235 185.957 48.575C186.237 47.905 186.622 47.325 187.112 46.835C187.602 46.345 188.177 45.97 188.837 45.71C189.507 45.45 190.227 45.32 190.997 45.32C191.767 45.32 192.407 45.415 192.917 45.605C193.427 45.795 193.902 46.07 194.342 46.43V48.53C194.102 48.25 193.817 48 193.487 47.78C193.167 47.55 192.807 47.37 192.407 47.24C192.007 47.11 191.557 47.045 191.057 47.045C190.417 47.045 189.822 47.2 189.272 47.51C188.732 47.81 188.292 48.24 187.952 48.8C187.622 49.35 187.457 50 187.457 50.75ZM210.694 45.5H212.719L209.149 51.575V56H207.349V51.59L203.794 45.5H205.804L208.249 50L210.694 45.5Z" fill="white"/>
</g>
<g filter="url(#filter3_d_619_163)">
<path d="M101.923 30.8262C102.216 28.9707 102.769 27.2617 103.583 25.6992C104.397 24.1367 105.325 22.7858 106.366 21.6465C107.44 20.4746 108.596 19.5143 109.833 18.7656C111.07 18.0169 112.274 17.5449 113.446 17.3496C114.618 17.1217 115.692 17.1706 116.669 17.4961C117.678 17.8216 118.492 18.4727 119.11 19.4492C119.11 20.1979 118.931 20.9141 118.573 21.5977C118.248 22.2812 117.873 22.9648 117.45 23.6484C117.06 24.332 116.685 25.0319 116.327 25.748C116.002 26.4642 115.839 27.2292 115.839 28.043C115.839 28.8893 116.018 29.5729 116.376 30.0938C116.767 30.582 117.434 30.8262 118.378 30.8262C119.159 30.8262 119.908 30.7122 120.624 30.4844C121.373 30.2565 122.121 30.1426 122.87 30.1426C123 30.1426 123.212 30.1589 123.505 30.1914C123.83 30.1914 124.042 30.1914 124.14 30.1914C123.749 30.7448 123.244 31.2168 122.626 31.6074C122.007 31.998 121.356 32.3398 120.673 32.6328C119.989 32.8932 119.273 33.0885 118.524 33.2188C117.808 33.349 117.141 33.4141 116.522 33.4141C115.937 33.4141 115.416 33.2839 114.96 33.0234C114.504 32.763 114.114 32.4212 113.788 31.998C113.463 31.5749 113.202 31.1029 113.007 30.582C112.844 30.0286 112.763 29.4915 112.763 28.9707C112.274 29.5241 111.737 30.11 111.151 30.7285C110.598 31.3145 109.996 31.8516 109.345 32.3398C108.726 32.8281 108.043 33.235 107.294 33.5605C106.578 33.8861 105.829 34.0488 105.048 34.0488C104.201 34.0488 103.469 33.7396 102.851 33.1211C102.232 32.4701 101.923 31.7051 101.923 30.8262ZM105.146 29.3125C105.146 29.5729 105.146 29.8659 105.146 30.1914C105.178 30.5169 105.39 30.7285 105.78 30.8262C106.594 30.6309 107.522 30.2077 108.563 29.5566C109.605 28.873 110.582 28.0918 111.493 27.2129C112.405 26.3014 113.17 25.3411 113.788 24.332C114.407 23.2904 114.716 22.2975 114.716 21.3535C114.716 21.2884 114.7 21.1908 114.667 21.0605C114.667 20.8978 114.667 20.7839 114.667 20.7188C113.56 20.7188 112.437 20.9466 111.298 21.4023C110.159 21.8581 109.133 22.4928 108.222 23.3066C107.31 24.0879 106.562 24.9993 105.976 26.041C105.422 27.0827 105.146 28.1732 105.146 29.3125ZM122.382 29.5566C122.382 29.1335 122.479 28.6615 122.675 28.1406C122.903 27.5872 123.244 27.2292 123.7 27.0664C123.765 27.0339 123.847 27.0176 123.944 27.0176C124.075 26.985 124.188 26.9525 124.286 26.9199C124.416 26.8874 124.53 26.8711 124.628 26.8711V29.5566C124.823 29.3613 125.116 29.0033 125.507 28.4824C125.93 27.9616 126.353 27.4082 126.776 26.8223C127.232 26.2038 127.639 25.6178 127.997 25.0645C128.388 24.5111 128.648 24.1042 128.778 23.8438L140.155 1.67578C140.155 1.67578 140.237 1.57812 140.399 1.38281C140.595 1.1875 140.806 1.05729 141.034 0.992188C141.295 0.894531 141.571 0.927083 141.864 1.08984C142.157 1.2526 142.434 1.67578 142.694 2.35938L135.761 16.3242V16.9102C136.672 17.0404 137.519 17.2357 138.3 17.4961C139.081 17.724 139.748 18.0658 140.302 18.5215C140.888 18.9772 141.343 19.5469 141.669 20.2305C141.994 20.8815 142.157 21.679 142.157 22.623C142.157 24.2181 141.734 25.7155 140.888 27.1152C140.074 28.4824 139.016 29.6868 137.714 30.7285C136.412 31.7376 134.963 32.5514 133.368 33.1699C131.806 33.7559 130.292 34.0488 128.827 34.0488C128.176 34.0488 127.476 33.9674 126.728 33.8047C125.979 33.6094 125.279 33.3327 124.628 32.9746C124.009 32.584 123.472 32.112 123.017 31.5586C122.593 30.9727 122.382 30.3053 122.382 29.5566ZM136.298 19.9863C135.842 19.9863 135.338 20.1979 134.784 20.6211C134.263 21.0443 133.743 21.5977 133.222 22.2812C132.701 22.9323 132.196 23.681 131.708 24.5273C131.22 25.3411 130.78 26.1549 130.39 26.9688C130.032 27.7826 129.739 28.5475 129.511 29.2637C129.283 29.9798 129.169 30.5495 129.169 30.9727C130.08 30.9727 131.106 30.7611 132.245 30.3379C133.384 29.9147 134.442 29.3613 135.419 28.6777C136.428 27.9616 137.258 27.1478 137.909 26.2363C138.593 25.2923 138.935 24.3158 138.935 23.3066C138.935 22.4277 138.756 21.6628 138.397 21.0117C138.039 20.3281 137.34 19.9863 136.298 19.9863ZM156.317 16.3242C155.569 16.4219 154.706 16.8939 153.729 17.7402C152.753 18.554 151.809 19.5632 150.897 20.7676C150.019 21.9395 149.27 23.2253 148.651 24.625C148.033 25.9922 147.724 27.2617 147.724 28.4336C147.724 29.3776 147.968 30.0449 148.456 30.4355C148.944 30.7936 149.644 30.9727 150.556 30.9727C151.532 30.9727 152.476 30.8587 153.388 30.6309C154.332 30.3704 155.259 30.11 156.171 29.8496C157.115 29.5566 158.043 29.2962 158.954 29.0684C159.898 28.8079 160.858 28.6777 161.835 28.6777C161.835 29.1335 161.77 29.5241 161.64 29.8496C161.509 30.1426 161.314 30.4681 161.054 30.8262C159.361 31.64 157.619 32.3887 155.829 33.0723C154.039 33.7233 152.167 34.0488 150.214 34.0488C149.628 34.0488 149.009 33.9512 148.358 33.7559C147.707 33.528 147.105 33.2188 146.552 32.8281C145.998 32.4375 145.526 31.9655 145.136 31.4121C144.778 30.8587 144.599 30.2402 144.599 29.5566C144.599 28.0918 144.81 26.6758 145.233 25.3086C145.657 23.9089 146.243 22.5905 146.991 21.3535C147.74 20.1165 148.635 18.9772 149.677 17.9355C150.751 16.8939 151.907 15.9824 153.144 15.2012V15.1523C153.632 14.8594 154.185 14.5827 154.804 14.3223C155.455 14.0293 156.057 13.8665 156.61 13.834C157.164 13.7689 157.619 13.8991 157.978 14.2246C158.368 14.5176 158.563 15.0872 158.563 15.9336C158.563 16.3242 158.531 16.8451 158.466 17.4961C158.401 18.1146 158.222 18.554 157.929 18.8145C157.668 18.9772 157.326 19.1237 156.903 19.2539C156.708 19.319 156.513 19.3678 156.317 19.4004V16.3242Z" fill="white"/>
</g>
<defs>
<filter id="filter0_i_619_163" x="0" y="3" width="55.71" height="66" filterUnits="userSpaceOnUse" color-interpolation-filters="sRGB">
<feFlood flood-opacity="0" result="BackgroundImageFix"/>
<feBlend mode="normal" in="SourceGraphic" in2="BackgroundImageFix" result="shape"/>
<feColorMatrix in="SourceAlpha" type="matrix" values="0 0 0 0 0 0 0 0 0 0 0 0 0 0 0 0 0 0 127 0" result="hardAlpha"/>
<feOffset dy="4"/>
<feGaussianBlur stdDeviation="2"/>
<feComposite in2="hardAlpha" operator="arithmetic" k2="-1" k3="1"/>
<feColorMatrix type="matrix" values="0 0 0 0 0 0 0 0 0 0 0 0 0 0 0 0 0 0 0.25 0"/>
<feBlend mode="normal" in2="shape" result="effect1_innerShadow_619_163"/>
</filter>
<filter id="filter1_d_619_163" x="7" y="12" width="41.9971" height="51.7102" filterUnits="userSpaceOnUse" color-interpolation-filters="sRGB">
<feFlood flood-opacity="0" result="BackgroundImageFix"/>
<feColorMatrix in="SourceAlpha" type="matrix" values="0 0 0 0 0 0 0 0 0 0 0 0 0 0 0 0 0 0 127 0" result="hardAlpha"/>
<feOffset dy="4"/>
<feGaussianBlur stdDeviation="2"/>
<feComposite in2="hardAlpha" operator="out"/>
<feColorMatrix type="matrix" values="0 0 0 0 0 0 0 0 0 0 0 0 0 0 0 0 0 0 0.25 0"/>
<feBlend mode="normal" in2="BackgroundImageFix" result="effect1_dropShadow_619_163"/>
<feBlend mode="normal" in="SourceGraphic" in2="effect1_dropShadow_619_163" result="shape"/>
</filter>
<filter id="filter2_d_619_163" x="67.4116" y="44.915" width="149.308" height="19.265" filterUnits="userSpaceOnUse" color-interpolation-filters="sRGB">
<feFlood flood-opacity="0" result="BackgroundImageFix"/>
<feColorMatrix in="SourceAlpha" type="matrix" values="0 0 0 0 0 0 0 0 0 0 0 0 0 0 0 0 0 0 127 0" result="hardAlpha"/>
<feOffset dy="4"/>
<feGaussianBlur stdDeviation="2"/>
<feComposite in2="hardAlpha" operator="out"/>
<feColorMatrix type="matrix" values="0 0 0 0 0 0 0 0 0 0 0 0 0 0 0 0 0 0 0.25 0"/>
<feBlend mode="normal" in2="BackgroundImageFix" result="effect1_dropShadow_619_163"/>
<feBlend mode="normal" in="SourceGraphic" in2="effect1_dropShadow_619_163" result="shape"/>
</filter>
<filter id="filter3_d_619_163" x="97.9229" y="0.845703" width="67.9121" height="41.2031" filterUnits="userSpaceOnUse" color-interpolation-filters="sRGB">
<feFlood flood-opacity="0" result="BackgroundImageFix"/>
<feColorMatrix in="SourceAlpha" type="matrix" values="0 0 0 0 0 0 0 0 0 0 0 0 0 0 0 0 0 0 127 0" result="hardAlpha"/>
<feOffset dy="4"/>
<feGaussianBlur stdDeviation="2"/>
<feComposite in2="hardAlpha" operator="out"/>
<feColorMatrix type="matrix" values="0 0 0 0 0 0 0 0 0 0 0 0 0 0 0 0 0 0 0.25 0"/>
<feBlend mode="normal" in2="BackgroundImageFix" result="effect1_dropShadow_619_163"/>
<feBlend mode="normal" in="SourceGraphic" in2="effect1_dropShadow_619_163" result="shape"/>
</filter>
</defs>
</svg>
